<svg width="16" height="16" viewBox="0 0 16 16" fill="none" xmlns="http://www.w3.org/2000/svg">
<g clip-path="url(#clip0_1_250)">
<path d="M4.56803 15.6249C4.05923 15.6226 3.56422 15.4592 3.15403 15.1582C2.73484 14.8633 2.42204 14.441 2.26216 13.954C2.10229 13.4671 2.10388 12.9415 2.2667 12.4555L3.0467 10.0429L0.993363 8.54153C0.581658 8.24073 0.275642 7.81742 0.119098 7.33216C-0.0374467 6.8469 -0.0364974 6.32457 0.12181 5.83988C0.280117 5.3552 0.587669 4.933 1.00046 4.6337C1.41326 4.33439 1.91015 4.17333 2.42003 4.17353H4.93336L5.6967 1.79353C5.85336 1.30616 6.16066 0.88108 6.57435 0.579519C6.98804 0.277959 7.48676 0.115479 7.9987 0.115479C8.51063 0.115479 9.00936 0.277959 9.42304 0.579519C9.83673 0.88108 10.144 1.30616 10.3007 1.79353L11.0667 4.17353H13.58C14.0899 4.17347 14.5866 4.33464 14.9993 4.63399C15.412 4.93334 15.7195 5.35554 15.8777 5.8402C16.0359 6.32485 16.0368 6.84713 15.8802 7.33232C15.7237 7.81751 15.4177 8.24077 15.006 8.54153L12.9534 10.0429L13.7334 12.4555C13.8906 12.9422 13.8895 13.4662 13.7301 13.9522C13.5707 14.4382 13.2612 14.8611 12.8463 15.1601C12.4313 15.4591 11.9322 15.6187 11.4208 15.6161C10.9093 15.6135 10.4119 15.4487 10 15.1455L8.00003 13.6749L6.00003 15.1462C5.5862 15.4549 5.08428 15.6226 4.56803 15.6249ZM2.42003 6.17353C2.33203 6.17352 2.24629 6.20133 2.17504 6.25298C2.1038 6.30462 2.0507 6.37747 2.02334 6.46111C1.99598 6.54474 1.99575 6.63488 2.0227 6.71865C2.04964 6.80242 2.10238 6.87553 2.17336 6.92753L4.8107 8.85487C4.98052 8.97904 5.10685 9.15361 5.17173 9.35373C5.2366 9.55386 5.23671 9.76934 5.17203 9.96953L4.17203 13.0695C4.14428 13.1536 4.144 13.2444 4.17122 13.3286C4.19844 13.4129 4.25176 13.4863 4.32346 13.5383C4.39516 13.5902 4.48153 13.618 4.57008 13.6176C4.65863 13.6173 4.74476 13.5888 4.81603 13.5362L7.4087 11.6289C7.58045 11.5025 7.78812 11.4343 8.00136 11.4343C8.21461 11.4343 8.42227 11.5025 8.59403 11.6289L11.1867 13.5355C11.2579 13.5886 11.3441 13.6175 11.4329 13.6181C11.5217 13.6187 11.6083 13.5909 11.6802 13.5388C11.7521 13.4868 11.8054 13.4131 11.8325 13.3285C11.8596 13.244 11.8589 13.153 11.8307 13.0689L10.8307 9.96887C10.766 9.76868 10.7661 9.55319 10.831 9.35307C10.8959 9.15294 11.0222 8.97837 11.192 8.8542L13.8287 6.92687C13.8996 6.8749 13.9523 6.80185 13.9793 6.71814C14.0063 6.63444 14.0061 6.54436 13.9788 6.46076C13.9515 6.37715 13.8986 6.3043 13.8274 6.2526C13.7563 6.2009 13.6706 6.173 13.5827 6.17287H10.3334C10.1216 6.17281 9.91525 6.10552 9.74416 5.98067C9.57307 5.85583 9.44603 5.67988 9.38136 5.4782L8.40003 2.4042C8.373 2.32007 8.31996 2.24668 8.24856 2.19462C8.17715 2.14256 8.09106 2.11451 8.0027 2.11451C7.91433 2.11451 7.82824 2.14256 7.75683 2.19462C7.68543 2.24668 7.63239 2.32007 7.60536 2.4042L6.6167 5.47887C6.55213 5.68023 6.4254 5.85594 6.25471 5.98075C6.08402 6.10556 5.87815 6.17306 5.6667 6.17353H2.42003Z" fill="#B0B4B7"/>
</g>
<defs>
<clipPath id="clip0_1_250">
<rect width="16" height="16" fill="white"/>
</clipPath>
</defs>
</svg>
